static_grf.mot
version=1
nRows=17
nColumns 19
inDegrees=yes
endheader
time	1_ground_force_vx	1_ground_force_vy	1_ground_force_vz	1_ground_force_px	1_ground_force_py	1_ground_force_pz	1_ground_torque_x	1_ground_torque_y	1_ground_torque_z	2_ground_force_vx	2_ground_force_vy	2_ground_force_vz	2_ground_force_px	2_ground_force_py	2_ground_force_pz	2_ground_torque_x	2_ground_torque_y	2_ground_torque_z
            1.002500	           -1.986103	          284.373005	          -20.787211	           -0.238578	            0.006170	           -0.393212	           -0.009833	            1.407855	           -0.102912	            0.287756	          260.492106	           23.970919	           -0.247967	            0.005589	           -0.697780	           -0.000885	           -0.801512	           -0.073756
            1.003000	           -2.215498	          284.733689	          -20.830952	           -0.238558	            0.006170	           -0.393178	           -0.010419	            1.339059	           -0.097965	            0.148495	          260.123652	           23.875809	           -0.248359	            0.005586	           -0.697513	           -0.000446	           -0.780779	           -0.071665
            1.003500	           -2.215285	          284.192665	          -20.787415	           -0.238634	            0.006173	           -0.393963	           -0.010508	            1.348033	           -0.098603	            0.334565	          260.492610	           23.877043	           -0.247748	            0.005591	           -0.698069	           -0.001041	           -0.810465	           -0.074288
            1.004000	           -2.123129	          284.732527	          -20.556044	           -0.238603	            0.006171	           -0.393401	           -0.010348	            1.387791	           -0.100190	            0.333777	          260.677755	           23.596131	           -0.247888	            0.005589	           -0.697732	           -0.001025	           -0.800267	           -0.072439
            1.004500	           -1.985531	          283.110525	          -20.655054	           -0.238543	            0.006173	           -0.393874	           -0.009725	            1.386599	           -0.101163	            0.285036	          261.229171	           23.832763	           -0.247637	            0.005591	           -0.698163	           -0.000874	           -0.800727	           -0.073053
            1.005000	           -2.031524	          284.552445	          -20.602901	           -0.238461	            0.006170	           -0.393296	           -0.009848	            1.379345	           -0.099871	            0.100295	          260.491931	           23.830215	           -0.248059	            0.005588	           -0.697777	           -0.000288	           -0.747608	           -0.068392
            1.005500	           -2.260936	          285.633995	          -20.597694	           -0.238488	            0.006167	           -0.392577	           -0.010538	            1.331337	           -0.096006	            0.525329	          259.572187	           23.967534	           -0.247937	            0.005586	           -0.696940	           -0.001688	           -0.833888	           -0.076997
            1.006000	           -1.986106	          285.634441	          -20.690089	           -0.238361	            0.006167	           -0.392589	           -0.009761	            1.403812	           -0.101686	            0.427497	          260.677926	           23.643020	           -0.248036	            0.005587	           -0.697373	           -0.001294	           -0.789227	           -0.071581
            1.006500	           -2.077759	          285.454189	          -20.690634	           -0.238451	            0.006168	           -0.392742	           -0.010004	            1.374383	           -0.099620	            0.290394	          259.755650	           23.921363	           -0.248164	            0.005587	           -0.697467	           -0.000869	           -0.777350	           -0.071588
            1.007000	           -2.077139	          284.552043	          -20.511075	           -0.238729	            0.006170	           -0.393217	           -0.010198	            1.397013	           -0.100699	            0.237522	          261.413203	           23.833440	           -0.247982	            0.005589	           -0.697827	           -0.000738	           -0.812144	           -0.074044
            1.007500	           -2.031865	          284.553035	          -20.740469	           -0.238987	            0.006168	           -0.392787	           -0.009812	            1.374125	           -0.100157	            0.284351	          261.413540	           23.786492	           -0.248215	            0.005589	           -0.698186	           -0.000833	           -0.765939	           -0.069694
            1.008000	           -2.123632	          284.372979	          -20.786870	           -0.238533	            0.006170	           -0.393149	           -0.010503	            1.406474	           -0.102809	            0.150468	          259.571336	           23.826909	           -0.248179	            0.005585	           -0.696862	           -0.000445	           -0.767180	           -0.070422
            1.008500	           -2.169035	          283.831553	          -20.651507	           -0.238762	            0.006171	           -0.393457	           -0.010445	            1.366794	           -0.099448	            0.288277	          260.309137	           23.641765	           -0.247846	            0.005590	           -0.697972	           -0.000858	           -0.774475	           -0.070339
            1.009000	           -1.939772	          284.191932	          -20.604674	           -0.238194	            0.006171	           -0.393338	           -0.009272	            1.358385	           -0.098487	            0.286386	          260.860722	           23.878377	           -0.247806	            0.005589	           -0.697684	           -0.000864	           -0.787029	           -0.072042
            1.009500	           -2.122524	          283.289812	          -20.424660	           -0.238311	            0.006174	           -0.394018	           -0.010059	            1.342507	           -0.096792	            0.104968	          259.202718	           23.872543	           -0.248187	            0.005585	           -0.697030	           -0.000328	           -0.808767	           -0.074487
            1.010000	           -2.168696	          285.092460	          -20.416817	           -0.238754	            0.006168	           -0.392808	           -0.010045	            1.320532	           -0.094570	            0.335250	          260.308302	           23.923314	           -0.248041	            0.005588	           -0.697685	           -0.001066	           -0.827882	           -0.076085
            1.010500	           -2.398235	          284.372139	          -20.602764	           -0.238342	            0.006170	           -0.393190	           -0.010951	            1.298539	           -0.094079	            0.519930	          261.046043	           23.785078	           -0.248086	            0.005589	           -0.697926	           -0.001565	           -0.785651	           -0.071584
